# xmcd
#
# Track frame offsets: 
#        150
#        11181
#        22917
#        33799
#        46479
#        56234
#        66305
#        77365
#        88921
#        99278
#        108134
#        117470
#        126551
#        135182
#        144638
#
# Disc length: 2084 seconds
#
# Revision: 1
# Processed by: cddbd v1.5.2PL0 Copyright (c) Steve Scherf et al.
# Submitted via: ExactAudioCopy v1.1
#
DISCID=c708220f
DTITLE=Mickey Gilley - Lonely Wine All The Way Down The Line
DYEAR=2002
DGENRE=Country
TTITLE0=World Of Our Own
TTITLE1=Valley Of Tears
TTITLE2=Without You
TTITLE3=That Heart Belongs To Me
TTITLE4=Slippin' And Slidin'
TTITLE5=Lonely Wine
TTITLE6=It All Depends
TTITLE7=Breathless
TTITLE8=Down The Line
TTITLE9=Susie Q
TTITLE10=Caught In The Middle
TTITLE11=In The Want Ad's
TTITLE12=My Babe
TTITLE13=Night After Night
TTITLE14=I Need Your Lovin'
EXTD=
EXTT0=
EXTT1=
EXTT2=
EXTT3=
EXTT4=
EXTT5=
EXTT6=
EXTT7=
EXTT8=
EXTT9=
EXTT10=
EXTT11=
EXTT12=
EXTT13=
EXTT14=
PLAYORDER=
